<svg enable-background="new 0 0 83.583 28.083" height="182.574186" viewBox="0 0 83.583 28.083" width="547.722558" xmlns="http://www.w3.org/2000/svg"><path d="m49.574 1.197h3.691c2.023 0 2.963.201 3.838 1.207.533.57.713 1.325.713 2.046 0 .956-.422 1.928-1.393 2.498 1.929.705 1.977 2.365 1.977 2.885 0 .989-.373 2.079-1.103 2.699-1.101.956-1.896 1.074-3.918 1.074h-3.806v-12.409zm2.93 4.712h1.086c.42 0 1.294 0 1.294-.99 0-.939-.823-.939-1.294-.939h-1.086zm0 4.913h1.441c.389 0 1.521 0 1.521-1.191 0-1.073-1.035-1.073-1.521-1.073h-1.441z"/><path d="m58.809 1.179h3.17v9.625h3.671v2.784h-6.841z"/><path d="m69.061 1.162v7.495c0 .839.049 2.365 1.609 2.365 1.576 0 1.576-1.375 1.576-2.365v-7.495h3.169v7.495c0 2.08-.452 3.002-1.24 3.807-.805.822-1.929 1.342-3.472 1.342-.905 0-2.549-.219-3.571-1.325-1.022-1.124-1.239-1.996-1.239-3.824v-7.495z"/><path d="m76.18 1.179h6.892v2.784h-3.857v1.928h3.738v2.783h-3.738v2.13h3.857v2.784h-6.892z"/><path d="m8.57 15.153h3.208v6.015l4.399-6.015h2.694v12.444h-2.917l.052-7.127-.034-.034-4.682 7.161h-2.946v-6.813.034l-4.217 6.779h-3.878z"/><path d="m25.907 14.918c3.823 0 6.557 2.985 6.557 6.44 0 3.454-2.717 6.439-6.573 6.439-3.907 0-6.524-3.102-6.524-6.288 0-.822.117-1.744.487-2.65.654-1.61 2.582-3.941 6.053-3.941m.051 10.095c2.247 0 3.337-2.046 3.337-3.638 0-1.61-1.09-3.674-3.371-3.674-2.197 0-3.387 1.879-3.387 3.623 0 1.911 1.291 3.689 3.421 3.689"/><path d="m36.003 15.153v7.496c0 .838.05 2.364 1.61 2.364 1.576 0 1.576-1.375 1.576-2.364v-7.496h3.169v7.496c0 2.079-.452 3.002-1.24 3.807-.805.821-1.929 1.342-3.472 1.342-.906 0-2.549-.219-3.571-1.325-1.023-1.124-1.241-1.996-1.241-3.823v-7.496h3.169z"/><path d="m43.176 15.153h2.732l4.797 7.799.032-.035-.006-5.032-1.512.033v-2.765h4.42v12.409h-2.75l-4.729-7.546-.033.018.084 7.528h-3.035z"/><path d="m68.587 15.153h2.89v12.41h-2.89z"/><path d="m72.605 15.153h2.735l4.795 7.799.035-.035-.137-7.764h3.036v12.409h-2.75l-4.727-7.546-.035.018.084 7.528h-3.036z"/><path d="m9.095 13.196h38.639s-.839-2.446-1.676-3.913c-.839-1.467-3.285-3.913-5.033-5.66-1.745-1.746-.976-1.793-2.514-2.515-1.537-.721-3.633-.07-3.633-.07s-3.537 2.203-4.472 2.655c-1.444.699-2.376.14-3.704-.07-1.326-.209-1.677.35-3.912 1.398s-2.446 1.677-4.192 2.096c-1.747.419-3.773.35-5.101.908-1.328.559-2.515 1.817-3.004 2.516-.491.698-1.398 2.655-1.398 2.655" fill="#00a3e6"/><path d="m57.758 27.562h-3.16l.033-12.414 5.008.005v2.784h-1.872l.01 7.151"/><path d="m57.758 27.563h1.848l1.035-1.619h3.635l-.013 1.619h2.993l.012-12.421h-2.887l-6.604 9.946m6.498-2.172h-1.631l1.678-2.515z"/></svg>